<?xml version="1.0" standalone="no"?>
<!DOCTYPE svg PUBLIC "-//W3C//DTD SVG 20010904//EN"
 "http://www.w3.org/TR/2001/REC-SVG-20010904/DTD/svg10.dtd">
<svg version="1.0" xmlns="http://www.w3.org/2000/svg"
 width="1200.000000pt" height="1200.000000pt" viewBox="0 0 1200.000000 1200.000000"
 preserveAspectRatio="xMidYMid meet">
<metadata>
Created by potrace 1.14, written by Peter Selinger 2001-2017
</metadata>
<g transform="translate(0.000000,1200.000000) scale(0.100000,-0.100000)"
fill="#000000" stroke="none">
<path d="M6125 11287 c-77 -21 -153 -64 -205 -117 -41 -42 -173 -301 -1115
-2189 -588 -1178 -1073 -2141 -1078 -2141 -12 0 -282 154 -519 296 -256 154
-507 314 -706 452 -92 63 -198 137 -237 163 -91 63 -172 85 -257 70 -112 -20
-202 -81 -265 -179 -33 -52 -35 -53 -56 -38 -42 31 -77 46 -134 61 -211 55
-437 -53 -489 -233 -16 -53 -16 -75 0 -312 98 -1480 123 -2347 90 -3145 -36
-873 -13 -1377 77 -1736 151 -599 531 -1001 1173 -1239 321 -119 705 -198
1276 -264 1119 -130 2032 -177 2825 -146 984 39 1728 155 2765 432 883 236
1335 510 1553 943 80 160 147 386 182 615 22 141 31 568 16 737 -17 192 -49
371 -78 434 -31 71 -101 140 -177 175 -117 53 -292 42 -411 -26 -160 -91 -289
-339 -445 -851 -39 -128 -90 -272 -112 -319 -76 -159 -188 -241 -488 -359
-667 -263 -1479 -451 -2290 -530 -476 -47 -1004 -64 -1534 -51 -460 12 -665
24 -1226 70 -129 11 -372 26 -540 35 -499 26 -751 60 -973 131 -337 109 -469
261 -544 624 -15 75 -17 160 -18 715 -2 900 -38 1547 -131 2380 -48 431 -158
1199 -191 1335 -5 19 23 -1 116 -85 480 -430 1026 -839 1471 -1102 302 -178
340 -193 491 -193 164 0 306 62 382 168 19 26 440 846 937 1822 497 976 940
1846 984 1932 l82 157 111 -187 c550 -926 1025 -1880 1460 -2932 74 -181 129
-298 159 -342 113 -167 283 -268 450 -268 104 0 174 29 334 138 871 590 1112
753 1116 749 13 -13 34 -891 33 -1377 -1 -647 7 -765 68 -1005 67 -259 164
-404 323 -479 61 -29 72 -31 180 -31 109 0 119 2 183 32 178 84 289 281 350
617 19 108 22 156 22 456 0 202 -7 455 -18 635 -9 165 -24 437 -32 605 -28
550 -103 1462 -130 1580 -49 210 -223 396 -414 440 -84 20 -198 8 -273 -28
-35 -16 -391 -246 -792 -511 -401 -265 -732 -479 -736 -474 -5 4 -47 98 -95
208 -362 831 -809 1691 -1285 2475 -305 501 -622 982 -698 1057 -101 101 -223
153 -372 159 -59 2 -114 -1 -145 -9z"/>
<path d="M2668 4781 c-76 -25 -118 -52 -177 -116 -61 -67 -87 -134 -103 -263
-16 -129 -16 -657 0 -787 55 -444 159 -756 343 -1025 308 -451 804 -640 1580
-600 232 12 295 25 375 80 114 79 173 227 152 381 -10 78 -36 136 -84 189 -89
98 -152 118 -419 130 -343 17 -517 50 -682 131 -187 92 -315 266 -412 555 -81
244 -103 416 -106 802 l-2 303 -34 66 c-41 81 -104 133 -189 157 -73 21 -171
19 -242 -3z"/>
</g>
</svg>
